PathFileType	4	(X/Y/Z)	C:/Users/beibeiliu/ov580/test_trc/User3\sequence.12_training_dense_left.trc
DataRate	CameraRate	NumFrames	NumMarkers	Units	OrigDataRate	OrigDataStartFrame	OrigNumFrames
120	120	19	19	mm	120	126	250
Frame#	Time	ThumbCMC			ThumbMCP			ThumbIP			ThumbTip			IndexMCP			IndexPIP			IndexTip			MiddleMCP			MiddlePIP			MiddleTip			RingMCP			RingPIP			RingTip			PinkyMCP			PinkyPIP			PinkyTip			BackHand1			BackHand2			BackHand3	
		X0	Y0	Z0	X1	Y1	Z1	X2	Y2	Z2	X3	Y3	Z3	X4	Y4	Z4	X5	Y5	Z5	X6	Y6	Z6	X7	Y7	Z7	X8	Y8	Z8	X9	Y9	Z9	X10	Y10	Z10	X11	Y11	Z11	X12	Y12	Z12	X13	Y13	Z13	X14	Y14	Z14	X15	Y15	Z15	X16	Y16	Z16	X17	Y17	Z17	X18	Y18	Z18	
125	1.04167	-116.263	-21.6145	39.1576	-102.406	-23.8351	14.3295	-98.7599	-26.0052	-16.6162	-101.864	-30.1928	-39.2055	-124.627	-12.6084	-37.2981	-124.19	-14.2359	-63.2895	-128.131	-16.0693	-90.1983	-143.499	-11.0889	-50.381	-144.074	-14.8596	-74.4481	-141.966	-16.1671	-104.831	-164.727	-14.2527	-40.4814	-159.533	-16.4388	-66.4801	-163.075	-17.8708	-91.2716	-181.641	-20.0673	-24.0834	-178.16	-19.6764	-46.6961	-179.622	-18.4156	-67.8863	-168.259	0.430998	8.96825	-169.738	5.57973	37.1298	-135.802	1.18229	26.8616	
126	1.05	-118.01	-19.3952	36.7941	-106.691	-21.2421	13.1662	-100.67	-24.8926	-21.4497	-103.016	-32.3474	-41.5704	-127.788	-16.7645	-44.9764	-126.857	-20.9645	-67.0555	-132.446	-25.791	-94.5941	-149.185	-17.3451	-47.8224	-143.428	-22.8853	-72.4978	-141.608	-26.5302	-102.88	-166.818	-22.6361	-46.753	-163.929	-26.8031	-66.1882	-163.471	-29.747	-90.2907	-185.503	-26.3128	-26.3719	-179.463	-28.2613	-44.7186	-180.499	-30.4577	-69.9852	-170.844	-2.12774	3.31929	-174.334	2.05318	37.2286	-142.127	2.58959	19.8486	
127	1.05833	-120.753	-14.5924	35.3992	-104.143	-18.0305	10.2498	-103.864	-24.7098	-19.5256	-102.07	-32.8017	-45.9026	-131.559	-21.1988	-45.718	-127.595	-26.455	-67.3598	-131.43	-31.7908	-95.1833	-146.246	-23.4121	-54.1857	-144.975	-31.077	-77.0448	-143.423	-35.493	-107.058	-165.687	-28.7992	-46.5427	-165.431	-34.6359	-66.3712	-159.835	-38.8482	-94.7295	-185.813	-33.1825	-28.2699	-184.404	-36.6227	-48.3026	-178.981	-39.8816	-71.831	-173.105	-5.44842	5.22048	-178.06	2.26021	28.5637	-146.742	2.35142	15.5252	
128	1.06667	-124.04	-11.5426	33.7476	-107.584	-14.9954	8.58365	-103.724	-23.1327	-21.7498	-100.011	-32.9177	-41.512	-132.433	-23.3688	-44.1067	-128.638	-31.024	-69.9414	-125.204	-36.4798	-91.152	-149.238	-29.6092	-55.7332	-143.591	-35.7442	-78.0955	-142.821	-44.2382	-106.28	-166.189	-35.7056	-49.0812	-163.59	-41.0996	-66.073	-158.561	-48.359	-94.9624	-182.671	-39.9027	-26.6007	-182.092	-44.8973	-50.4582	-174.461	-49.3406	-74.1034	-176.801	-11.4324	-0.246699	-183.617	-0.207516	27.8455	-148.488	3.88689	15.909	
129	1.075	-126.222	-8.92905	31.1665	-111.223	-13.6081	6.39781	-104.769	-22.0433	-24.9799	-100.731	-31.4824	-39.7605	-129.153	-24.4895	-44.5348	-125.72	-34.6012	-72.6049	-123.386	-40.7989	-91.9473	-151.242	-34.3088	-54.0001	-141.958	-42.8875	-78.8475	-139.01	-50.5309	-106.357	-165.56	-42.4449	-48.5443	-162.322	-48.7795	-68.3241	-156.755	-57.1277	-93.2659	-183.756	-46.8275	-29.3204	-177.4	-51.935	-50.0367	-172.267	-56.664	-73.525	-179.165	-14.704	-2.15541	-184.963	-2.99102	23.9223	-150.336	1.68723	10.8348	
130	1.08333	-130.469	-6.97742	27.1754	-113.434	-9.32921	1.81266	-104.506	-20.4654	-24.7072	-97.0583	-29.2384	-42.6311	-128.678	-26.5663	-45.5595	-125.688	-37.5424	-71.1432	-122.485	-47.7505	-94.6018	-146.136	-37.7254	-55.3962	-139.584	-47.6376	-77.0232	-132.473	-57.1916	-103.885	-165.558	-47.3873	-45.2679	-154.249	-55.4701	-70.0637	-149.842	-65.7709	-94.3569	-177.864	-54.0224	-31.02	-172.682	-60.4819	-48.7508	-168.818	-68.002	-71.4596	-182.282	-21.3993	-8.1278	-189.207	-10.9834	21.0967	-156.459	0.655699	10.3878	
131	1.09167	-134.267	-7.87258	28.3393	-116.271	-10.1344	3.42519	-103.792	-18.6393	-21.526	-96.7271	-30.544	-40.6353	-128.255	-31.5431	-48.0009	-122.006	-40.0031	-67.7519	-119.513	-52.8849	-90.0066	-144.229	-42.9988	-56.9579	-134.792	-53.3227	-77.1643	-127.348	-65.75	-105.019	-160.473	-54.8284	-46.625	-153.852	-63.9463	-68.7762	-147.239	-75.3491	-89.6518	-172.932	-59.7956	-29.1018	-169.231	-70.0524	-48.6891	-164.58	-77.5142	-72.6235	-183.737	-28.0973	-6.08928	-190.576	-13.5832	17.9079	-160.562	-3.28765	8.68238	
132	1.1	-136.367	-7.5447	26.0602	-115.316	-8.87995	2.24383	-104.618	-18.8519	-23.379	-94.9945	-28.9163	-37.7602	-128.416	-35.6883	-45.7974	-121.154	-46.4119	-68.1179	-113.369	-56.1436	-88.4112	-140.4	-49.1135	-56.0542	-131.266	-60.7285	-75.8811	-119.906	-72.6667	-103.474	-153.168	-58.4	-46.5655	-147.213	-71.0625	-67.5795	-136.994	-79.873	-87.479	-168.564	-66.5465	-27.9636	-161.486	-76.8184	-48.4217	-155.156	-86.6525	-68.8455	-178.945	-34.8146	-7.89067	-192.583	-19.232	20.109	-159.726	-6.89177	2.37722	
133	1.10833	-137.184	-5.00835	25.576	-118.507	-6.57999	6.09887	-105.826	-18.644	-19.2107	-93.3107	-29.0431	-39.5449	-125.265	-35.7837	-43.0838	-116.145	-49.5357	-63.6711	-106.545	-60.7633	-85.8718	-137.702	-52.828	-51.7783	-122.497	-61.6128	-71.5271	-113.055	-76.8123	-95.6849	-154.307	-65.8525	-41.1044	-140.028	-73.7846	-61.1076	-127.001	-86.8238	-84.2096	-165.999	-75.1407	-25.596	-157.698	-83.984	-43.4935	-146.187	-90.3152	-60.9748	-181.317	-37.8843	-4.63491	-194.483	-26.8119	18.3268	-165.496	-10.7978	4.99055	
134	1.11667	-142.415	-4.50699	29.3762	-122.938	-8.41414	4.30614	-107.468	-17.9324	-18.1306	-94.2756	-28.7148	-33.4175	-123.386	-36.8662	-40.1989	-106.447	-47.4752	-62.6864	-100.121	-62.2377	-77.6554	-130.765	-52.8241	-48.2557	-118.093	-64.026	-64.9211	-97.8797	-76.7561	-90.1601	-146.263	-68.9412	-38.0885	-130.729	-77.0619	-57.3858	-116.474	-92.7318	-77.6912	-157.363	-78.914	-25.0806	-144.167	-84.7365	-40.4573	-132.903	-92.426	-56.985	-175.718	-46.5025	-5.93414	-192.261	-32.2086	13.8364	-165.738	-12.1826	2.37024	
135	1.125	-146.828	-0.744098	31.5411	-123.485	-2.82392	9.5289	-105.875	-16.5281	-14.8421	-90.7315	-27.4766	-29.1407	-117.577	-37.3083	-39.4456	-103.488	-49.8867	-56.6889	-91.6026	-62.8362	-72.9505	-125.362	-53.0732	-43.6371	-108.389	-61.7357	-59.5437	-88.9951	-80.7028	-83.6595	-133.839	-66.4265	-35.2617	-120.827	-80.1927	-53.136	-103.225	-89.4609	-69.424	-148.943	-77.7331	-15.3717	-134.71	-87.2959	-35.0738	-123.547	-94.7464	-50.6246	-173.246	-46.3446	-3.68638	-192.22	-41.491	15.2792	-167.042	-13.8545	3.92974	
136	1.13333	-148.395	-2.85058	29.4401	-123.624	-1.97972	9.52687	-104.149	-11.8635	-7.64228	-89.5857	-29.2981	-22.571	-113.606	-33.242	-35.2978	-99.1982	-45.1783	-50.4583	-85.1711	-57.2998	-64.6578	-118.932	-50.8786	-39.6214	-99.1342	-59.5007	-55.352	-75.9298	-71.8829	-75.098	-128.479	-66.8971	-27.8162	-112.796	-74.8305	-42.3884	-92.1954	-88.009	-61.0441	-138.379	-77.9895	-15.2467	-126.106	-87.6288	-27.2036	-109.11	-92.9296	-45.3115	-169.942	-46.239	0.569238	-190.964	-43.0488	16.9746	-168.005	-16.5151	4.71376	
137	1.14167	-152.693	0.182756	29.4196	-126.823	4.06021	12.9114	-105.915	-12.3634	-5.88882	-90.4501	-29.1294	-15.7038	-113.996	-27.5458	-29.445	-91.9227	-36.5435	-46.7774	-74.8624	-48.046	-60.2099	-114.87	-47.0784	-31.5974	-91.1461	-55.5536	-49.0469	-69.2221	-68.9639	-65.0621	-122.243	-65.9545	-21.3467	-103.593	-74.3026	-34.9839	-80.4533	-80.4984	-52.6665	-130.21	-75.327	-7.68149	-113.974	-84.3679	-20.3883	-101.77	-88.9379	-33.7451	-166.564	-48.8448	1.68424	-187.704	-45.0854	20.6721	-168.276	-14.8571	4.07569	
138	1.15	-156.694	3.87558	31.0096	-130.502	6.17156	13.0645	-104.202	-6.30256	-7.72596	-87.9401	-21.0907	-13.545	-110.455	-26.1576	-28.7829	-89.0118	-36.8221	-42.2466	-68.0937	-45.0482	-55.3605	-108.469	-48.5363	-30.2905	-84.875	-53.0702	-43.0596	-62.1482	-62.0505	-57.9284	-116.616	-61.2659	-16.8649	-95.4512	-67.3241	-29.9322	-75.2963	-78.3493	-42.1342	-122.797	-70.7341	-3.23427	-106.477	-81.6847	-14.2116	-93.4536	-85.8567	-25.8675	-161.109	-53.3469	1.23888	-186.696	-45.6198	22.8821	-167.332	-16.1077	3.15742	
139	1.15833	-158.256	8.07452	26.2311	-132.295	9.42475	8.71095	-108.059	-2.25291	-6.39333	-91.4667	-13.1843	-11.8999	-108.144	-22.275	-27.8174	-84.7459	-30.8998	-39.8384	-67.0999	-40.9604	-47.0323	-103.874	-48.2986	-26.4808	-84.3861	-49.3187	-35.697	-57.6703	-54.9694	-50.8092	-109.371	-59.7514	-12.7565	-87.9921	-66.6406	-25.213	-66.4843	-70.6726	-37.8012	-121.922	-69.8283	6.06591	-103.288	-77.871	-5.48347	-82.9308	-84.6422	-18.826	-160.641	-50.415	8.16725	-181.521	-49.4679	21.0054	-170.114	-19.6346	6.43804	
140	1.16667	-162.156	7.33494	25.1161	-137.422	13.4977	9.20312	-111.192	5.94986	-7.43479	-89.4107	-2.91844	-16.8075	-107.247	-23.2919	-23.1386	-82.8711	-30.5259	-34.8621	-63.2765	-38.3627	-41.8625	-103.981	-41.305	-21.0272	-79.8314	-46.9438	-31.0088	-50.3412	-51.02	-45.6517	-107.132	-55.2579	-9.18598	-83.1093	-60.4683	-20.8405	-61.2691	-64.7221	-30.7906	-116.872	-67.2122	8.69965	-98.7423	-73.6228	-1.26132	-80.9931	-75.7187	-12.3699	-157.331	-50.1825	10.0036	-183.597	-47.22	26.1924	-169.414	-17.5126	2.34325	
141	1.175	-166.526	10.177	24.989	-141.835	12.8234	8.64422	-116.444	13.0022	-9.55299	-97.6258	6.18884	-15.9635	-109.431	-16.7512	-21.9054	-86.3188	-23.0174	-31.0372	-59.9631	-29.6652	-41.2238	-103.951	-40.128	-18.487	-75.3135	-39.4347	-31.3221	-50.1636	-43.3568	-41.831	-103.469	-55.8549	-6.07093	-83.2514	-58.7132	-13.7754	-60.6615	-63.0813	-22.533	-113.76	-66.5432	9.08223	-98.5316	-70.2371	2.52111	-75.75	-73.6957	-11.9295	-153.366	-50.3306	9.56046	-180.114	-50.3745	24.1457	-170.259	-20.1745	6.76974	
142	1.18333	-172.964	11.3	24.7782	-147.798	14.4711	6.27833	-121.768	13.8225	-11.1171	-102.052	10.3351	-19.7879	-112.347	-15.3849	-22.3148	-86.7285	-21.2296	-29.9768	-64.0693	-24.7008	-36.9524	-101.951	-34.0056	-19.3937	-77.8448	-36.9427	-27.3197	-46.7272	-39.583	-38.3757	-105.524	-48.6888	-4.69561	-82.3577	-53.3423	-11.5876	-55.638	-51.742	-24.5328	-111.462	-63.7405	11.5187	-95.3192	-62.9928	3.27774	-75.0634	-70.2894	-6.58863	-155.472	-49.4398	10.7076	-179.715	-53.7303	25.3375	-173.813	-22.9157	6.77629	
143	1.19167	-177.362	7.40861	21.0046	-153.216	12.3444	4.19212	-128.987	15.4051	-13.5069	-108.476	14.3963	-23.6851	-114.219	-12.1297	-23.3932	-90.3643	-14.4737	-32.1039	-65.2654	-15.3061	-39.2616	-101.163	-33.4574	-19.4169	-76.4809	-31.146	-27.9373	-48.2999	-27.2907	-40.7281	-104.826	-45.6023	-3.79548	-78.657	-46.6649	-12.4086	-59.2535	-45.3193	-20.558	-112.203	-58.7877	15.0927	-92.4305	-57.1739	4.3674	-68.6981	-61.535	-6.10872	-154.649	-49.5517	7.46884	-179.168	-55.7435	26.5179	-174.627	-25.1549	6.73332	
